HIERARCHY
ROOT Hips
{
	OFFSET 0.000000 0.000000 0.000000
	CHANNELS 6 Xposition Yposition Zposition Xrotation Yrotation Zrotation
	JOINT LeftUpLeg_virtual
	{
		OFFSET 0.000000 0.000000 0.000000
		CHANNELS 3 Xrotation Yrotation Zrotation
		JOINT LeftUpLeg
		{
			OFFSET 10.205400 -3.823500 0.155100
			CHANNELS 3 Xrotation Yrotation Zrotation
			JOINT LeftLeg
			{
				OFFSET 0.708757 -12.982077 0.567790
				CHANNELS 3 Xrotation Yrotation Zrotation
				JOINT LeftFoot
				{
					OFFSET -0.708756 -10.717838 -2.184338
					CHANNELS 3 Xrotation Yrotation Zrotation
					JOINT LeftToeBase
					{
						OFFSET 0.108149 -7.191104 7.560241
						CHANNELS 3 Xrotation Yrotation Zrotation
						JOINT LeftToe_End
						{
							OFFSET 0.070230 0.081724 4.490308
							CHANNELS 3 Xrotation Yrotation Zrotation
							End Site
							{
								OFFSET 0 0 0
							}
						}
					}
				}
			}
		}
	}
	JOINT RightUpLeg_virtual
	{
		OFFSET 0.000000 0.000000 0.000000
		CHANNELS 3 Xrotation Yrotation Zrotation
		JOINT RightUpLeg
		{
			OFFSET -10.205400 -3.823500 0.005500
			CHANNELS 3 Xrotation Yrotation Zrotation
			JOINT RightLeg
			{
				OFFSET -0.708756 -12.982134 0.610632
				CHANNELS 3 Xrotation Yrotation Zrotation
				JOINT RightFoot
				{
					OFFSET 0.708754 -10.717769 -1.945823
					CHANNELS 3 Xrotation Yrotation Zrotation
					JOINT RightToeBase
					{
						OFFSET -0.108140 -7.191069 7.372968
						CHANNELS 3 Xrotation Yrotation Zrotation
						JOINT RightToe_End
						{
							OFFSET -0.070227 0.081735 4.479403
							CHANNELS 3 Xrotation Yrotation Zrotation
							End Site
							{
								OFFSET 0 0 0
							}
						}
					}
				}
			}
		}
	}
	JOINT Spine_virtual
	{
		OFFSET 0.000000 0.000000 0.000000
		CHANNELS 3 Xrotation Yrotation Zrotation
		JOINT Spine
		{
			OFFSET 0.000000 6.876099 0.125700
			CHANNELS 3 Xrotation Yrotation Zrotation
			JOINT Spine1
			{
				OFFSET 0.000000 5.730043 0.104720
				CHANNELS 3 Xrotation Yrotation Zrotation
				JOINT Spine1_split
				{
					OFFSET 0.000000 5.730043 0.104720
					CHANNELS 3 Xrotation Yrotation Zrotation
					JOINT Spine2
					{
						OFFSET 0.000000 5.730043 0.104720
						CHANNELS 3 Xrotation Yrotation Zrotation
						JOINT Neck_virtual
						{
							OFFSET 0.000000 0.000000 0.000000
							CHANNELS 3 Xrotation Yrotation Zrotation
							JOINT Neck
							{
								OFFSET 0.000000 10.314075 0.188496
								CHANNELS 3 Xrotation Yrotation Zrotation
								JOINT Head
								{
									OFFSET 0.000000 7.643700 -2.377400
									CHANNELS 3 Xrotation Yrotation Zrotation
									JOINT HeadTop_End
									{
										OFFSET 0.000000 43.788605 -13.619600
										CHANNELS 3 Xrotation Yrotation Zrotation
										End Site
										{
											OFFSET 0 0 0
										}
									}
								}
							}
						}
						JOINT LeftShoulder_virtual
						{
							OFFSET 0.000000 0.000000 0.000000
							CHANNELS 3 Xrotation Yrotation Zrotation
							JOINT LeftShoulder
							{
								OFFSET 2.196100 4.412489 0.087492
								CHANNELS 3 Xrotation Yrotation Zrotation
								JOINT LeftShoulder_split
								{
									OFFSET 2.196100 4.412489 0.087492
									CHANNELS 3 Xrotation Yrotation Zrotation
									JOINT LeftArm
									{
										OFFSET 8.771219 -2.981674 -0.026999
										CHANNELS 3 Xrotation Yrotation Zrotation
										JOINT LeftForeArm
										{
											OFFSET 8.512804 0.000000 -0.000000
											CHANNELS 3 Xrotation Yrotation Zrotation
											JOINT LeftHand
											{
												OFFSET 18.484802 0.000000 -0.000000
												CHANNELS 3 Xrotation Yrotation Zrotation
												End Site
												{
													OFFSET 0 0 0
												}
											}
										}
									}
								}
							}
						}
						JOINT RightShoulder_virtual
						{
							OFFSET 0.000000 0.000000 0.000000
							CHANNELS 3 Xrotation Yrotation Zrotation
							JOINT RightShoulder
							{
								OFFSET -2.196100 4.412496 0.070690
								CHANNELS 3 Xrotation Yrotation Zrotation
								JOINT RightShoulder_split
								{
									OFFSET -2.196100 4.412496 0.070690
									CHANNELS 3 Xrotation Yrotation Zrotation
									JOINT RightArm
									{
										OFFSET -8.771282 -2.981682 -0.094208
										CHANNELS 3 Xrotation Yrotation Zrotation
										JOINT RightForeArm
										{
											OFFSET -8.494598 0.000000 0.000000
											CHANNELS 3 Xrotation Yrotation Zrotation
											JOINT RightHand
											{
												OFFSET -18.483803 0.000000 0.000001
												CHANNELS 3 Xrotation Yrotation Zrotation
												End Site
												{
													OFFSET 0 0 0
												}
											}
										}
									}
								}
							}
						}
					}
				}
			}
		}
	}
}
MOTION
Frames: 4
Frame Time: 0.03333333
2.094834 25.153841 57.286438 0.000000 0.000000 0.000000 5.805926 -22.471232 0.131338 35.334177 24.036170 12.286294 34.669186 6.198281 -3.816317 -39.699901 15.146528 -41.010754 -34.096516 -0.401990 -8.837084 0.000000 0.000000 0.000000 8.221468 -18.768545 -0.003305 -77.018381 -3.534187 -9.211150 56.177384 2.921457 -4.280757 12.891444 6.263929 9.086120 -7.299591 5.067894 1.843162 0.000000 0.000000 0.000000 7.506276 -22.176166 2.155494 1.940281 -5.446010 0.042383 3.080130 -6.678824 0.757136 2.464113 -5.001578 0.670250 0.000000 0.000000 0.000000 4.145293 -6.254018 0.686725 13.005659 1.717208 11.428277 -1.496605 4.668336 -15.310542 0.000000 0.000000 0.000000 4.600578 -7.184160 0.086634 -2.539930 -15.685092 -17.113010 -5.758833 8.229818 -0.369838 -45.290588 -10.566245 -25.209718 -20.250497 -72.386481 9.396130 0.000000 0.000000 0.000000 3.795348 -6.228898 1.274089 -0.318525 -0.515845 -1.031526 -4.995878 -0.819581 -3.618506 -29.861058 41.787514 8.503791 47.868636 30.662509 -20.537081 0.000000 0.000000 0.000000 
1.777255 25.072702 59.492844 0.000000 0.000000 0.000000 8.982229 -26.057412 0.277917 41.173825 25.141081 9.740279 25.389640 9.165120 -2.406388 -38.269956 12.682906 -41.436780 -37.682188 -1.594204 -4.499393 0.000000 0.000000 0.000000 11.542916 -22.771180 0.315120 -76.532693 -3.634728 -3.703962 56.348818 1.597780 -4.325636 8.686770 6.582101 7.385630 -7.144310 3.643509 2.461483 0.000000 0.000000 0.000000 10.097045 -27.041936 1.710135 2.039663 -8.135437 0.324973 3.325055 -10.165350 1.808039 2.086550 -3.287886 0.600373 0.000000 0.000000 0.000000 4.275230 -9.583596 2.041285 9.914475 4.798191 13.256806 0.994237 10.897566 -19.355230 0.000000 0.000000 0.000000 4.727721 -10.598272 1.533478 -4.367721 -20.799338 -17.698658 -6.364889 9.017603 -0.128350 -43.029167 -18.652360 -30.056866 -15.056242 -56.265316 10.528267 0.000000 0.000000 0.000000 3.838699 -9.638456 2.602206 -0.088127 -3.031317 5.698691 -4.199858 -1.016088 -3.647531 -20.312911 31.469127 0.612599 38.125699 23.758390 -9.161243 0.000000 0.000000 0.000000 
1.424021 25.062237 61.714165 0.000000 0.000000 0.000000 12.235170 -29.499437 0.555844 43.946848 28.106585 9.090384 20.474983 12.061006 -2.167958 -34.421292 8.462065 -39.208144 -35.426484 -3.485309 1.287876 0.000000 0.000000 0.000000 14.629056 -25.870627 0.558513 -75.710980 -2.927000 1.037560 57.408840 0.486006 -4.338251 3.631403 6.988217 5.297731 -4.742861 2.954083 3.003482 0.000000 0.000000 0.000000 12.138185 -30.690946 1.069891 2.084093 -10.137752 0.556511 3.802450 -12.664694 2.784391 1.159462 -1.926359 0.500356 0.000000 0.000000 0.000000 4.834208 -11.951742 3.320114 6.203857 7.360144 15.005205 3.315063 15.690439 -22.225169 0.000000 0.000000 0.000000 5.030147 -12.940458 2.872673 -5.453320 -24.569430 -16.612757 -6.531008 8.606709 -0.140542 -41.706826 -26.973860 -35.621369 -12.462588 -40.963868 8.738442 0.000000 0.000000 0.000000 4.011999 -12.140729 3.685700 0.343877 -5.129050 10.038265 -3.170735 -0.672096 -2.755745 -17.281796 22.882858 -1.232393 31.202394 22.931884 -3.355998 0.000000 0.000000 0.000000 
1.138525 25.118200 63.789665 0.000000 0.000000 0.000000 14.894165 -33.420857 0.988210 42.097239 32.222852 11.364992 22.899681 13.969572 -3.600570 -24.983731 1.546646 -35.371183 -27.936964 -4.755672 7.479736 0.000000 0.000000 0.000000 17.019832 -28.918085 0.759597 -74.679034 -1.784589 4.592495 58.902677 -0.132230 -4.262027 -0.678950 7.740704 3.749798 -2.135952 2.983286 3.037646 0.000000 0.000000 0.000000 13.342820 -33.913132 0.233085 2.117353 -11.323532 0.814899 4.336502 -14.103476 3.502042 0.261490 -1.188637 0.334235 0.000000 0.000000 0.000000 5.540903 -13.299154 4.236579 2.360343 9.424139 16.663157 5.115396 19.257440 -23.898899 0.000000 0.000000 0.000000 5.285123 -14.207043 3.839565 -5.764018 -26.977531 -14.274132 -5.968649 7.381877 -0.526239 -42.731651 -34.109159 -42.211669 -10.800319 -29.447831 6.008112 0.000000 0.000000 0.000000 4.177242 -13.623625 4.360896 0.756864 -6.276394 12.069455 -1.868062 0.005259 -1.387813 -17.672257 16.586204 -0.259900 24.699130 26.168717 -0.385203 0.000000 0.000000 0.000000 
